<svg xmlns="http://www.w3.org/2000/svg" viewBox="0 0 25 11" class="qodef-moustache"><path d="M21.1 3.7c-.6-.1-1.1-.3-1.6-.7-.4-.3-.8-.7-1.1-1-.9-.9-1.8-1.8-3.1-1.8-.2 0-.4 0-.6.1-.8.1-1.6.6-2.2 1.3C11.9.9 11.2.4 10.3.3c-.2 0-.4-.1-.6-.1-1.3 0-2.2.9-3 1.8-.4.3-.8.7-1.2 1-.6.5-1.3.7-2.1.7-1 0-1.9-.4-2.6-1l-.6-.6v.8c0 6.8 4.4 7.8 7.1 7.8 1.5 0 2.8-.3 3.2-.5.8-.4 1.4-.9 2-1.5.5.7 1.2 1.2 2 1.5.4.2 1.7.5 3.2.5 1 0 2.3-.1 3.5-.7.2-.1.5-.3.7-.4 1.7-1 3-3 3-6.8v-.7l-.6.5c-.6.6-1.5 1-2.4 1l-.8.1zm0 5.6c-1.1.6-2.3.8-3.5.8-1.5 0-2.7-.3-3-.5-.8-.4-1.5-1-2-1.7l-.3-.4-.3.4c-.5.7-1.1 1.3-2 1.7 0 .1-1.2.4-2.7.4C4.5 10 1.2 8.9.9 3.6c.7.5 1.6.7 2.5.7.9 0 1.8-.3 2.5-.8.4-.3.8-.7 1.2-1.1C7.9 1.7 8.7 1 9.8 1h.5c.8.1 1.5.6 2 1.4l.3.4.3-.4c.5-.8 1.2-1.3 2-1.4h.5c1.1 0 1.8.8 2.7 1.6.4.4.8.8 1.2 1.1.6.4 1.3.7 2 .8h.7c.8 0 1.6-.3 2.3-.7-.1 2.6-1 4.2-2.3 5.2-.4 0-.6.1-.9.3z"/><path d="M17.7 11c-1.5 0-2.9-.3-3.3-.5-.7-.3-1.4-.8-1.9-1.4-.5.6-1.1 1.1-1.9 1.4-.4.2-1.7.5-3.3.5C4.6 11 0 10 0 2.9V1.6l.9.9c.6.6 1.5 1 2.4 1 .7 0 1.4-.2 2-.6.4-.3.7-.6 1.1-1 1-1 2-1.9 3.4-1.9.2 0 .4 0 .6.1.8.1 1.5.6 2.1 1.2.6-.7 1.3-1.1 2.1-1.2.2-.1.4-.1.6-.1 1.4 0 2.4 1 3.3 1.8.4.3.7.7 1.1 1 .4.3 1 .5 1.5.6h.7c.9 0 1.7-.4 2.3-1l.9-.8v1.3c0 4.2-1.7 6.1-3.1 7-.2.1-.5.3-.7.4-.9.5-2.1.7-3.5.7zm-5.2-2.7l.2.2c.5.6 1.1 1.1 1.9 1.5.4.2 1.7.5 3.1.5 1.4 0 2.5-.2 3.4-.7.2-.1.5-.3.7-.4 1.9-1.1 2.9-3.4 2.9-6.5v-.2l-.2.2c-.7.6-1.6 1-2.5 1.1h-.7c-.6-.1-1.2-.3-1.8-.7-.4-.3-.8-.7-1.2-1-.8-.8-1.7-1.7-3-1.7-.2 0-.4 0-.5.1-.8.1-1.5.6-2 1.3h-.3l-.2-.2c-.6-.7-1.3-1.1-2-1.3-.2 0-.4-.1-.5-.1-1.2 0-2.1.9-3 1.7-.4.4-.8.8-1.2 1.1-.6.5-1.4.7-2.2.7-1 0-2-.4-2.7-1.1l-.3-.1V3c0 6.6 4.3 7.6 6.9 7.6 1.5 0 2.8-.3 3.1-.5.8-.4 1.4-.9 1.9-1.5l.2-.3zm5.2 2c-1.6 0-2.8-.3-3-.5-.9-.4-1.6-1-2-1.8l-.1-.1-.2.1c-.5.8-1.2 1.4-2 1.8-.3.1-1.5.5-3 .5-2.9 0-6.3-1.1-6.6-6.6v-.5l.2.3c.7.5 1.5.7 2.3.7.9 0 1.7-.3 2.4-.8.5-.3.9-.7 1.3-1.1C7.9 1.5 8.7.7 9.8.7h.5c.8.2 1.6.7 2.1 1.5l.1.1.1-.1c.6-.8 1.3-1.4 2.1-1.5h.5c1.1 0 1.9.8 2.8 1.6l-.1.2.1-.2c.4.4.8.8 1.2 1.1.6.4 1.2.7 1.9.7h.7c.8 0 1.5-.3 2.2-.7l.4-.2v.5c-.1 2.4-.9 4.2-2.4 5.3-.2.2-.5.3-.7.5-1 .5-2.2.8-3.6.8zm-5.2-3.2l.5.7c.4.7 1 1.2 1.8 1.6.2.1 1.4.4 2.9.4 1.3 0 2.4-.3 3.4-.7.2-.1.4-.3.6-.4 1.2-.9 2-2.5 2.1-4.6-.6.3-1.3.5-2 .5h-.7c-.8-.1-1.5-.4-2.1-.8-.5-.3-.9-.7-1.2-1.1-.8-.8-1.5-1.5-2.5-1.5h-.4c-.7.1-1.4.6-1.9 1.3l-.4.7-.6-.6c-.5-.7-1.2-1.2-1.9-1.3h-.4c-1 0-1.7.7-2.5 1.5-.4.3-.8.7-1.2 1-.7.5-1.7.8-2.6.8-.8 0-1.5-.2-2.2-.6.4 4.7 3.6 5.7 6.2 5.7 1.5 0 2.6-.3 2.9-.4.7-.3 1.3-.8 1.7-1.5l.5-.7z"/></svg>