<svg xmlns="http://www.w3.org/2000/svg" class="qodef-svg-opener-icon" width="50" viewBox="0 0 64 64"><circle fill="#F8F7F2" cx="32" cy="32" r="32"/><g fill="#D24227"><path d="M47.6 44c2.8-1.5 5-4.5 5-10.1v-1.2l-.9.8c-1.1.9-2.5 1.5-4 1.5V22h-5.8c-.3-2-2-3.6-4.2-3.6s-4 1.6-4.2 3.6h-3.7c-.3-2-2-3.6-4.2-3.6-2.3 0-4.3 1.8-4.3 4.1s1.9 4.1 4.3 4.1c2.1 0 3.9-1.5 4.2-3.5h3.7c.3 2 2.1 3.5 4.2 3.5s3.9-1.5 4.2-3.5h4.7v12c-1-.1-2-.4-2.8-1-.7-.4-1.3-1-1.9-1.5-1.5-1.3-3-2.6-5.2-2.6-.3 0-.6 0-.9.1-1.4.2-2.6.9-3.6 2-1-1.1-2.3-1.8-3.6-2-.3-.1-.6-.1-.9-.1-2.2 0-3.8 1.3-5.2 2.6-.6.5-1.3 1.1-1.9 1.5-1 .7-2.3 1-3.6 1-1.6 0-3.2-.6-4.4-1.5l-.9-.8V34c0 10.2 7.5 11.7 11.9 11.7 2.5 0 4.8-.5 5.4-.8 1.3-.6 2.4-1.3 3.3-2.3.9 1 2 1.8 3.3 2.3.6.3 2.9.8 5.4.8 1.7 0 3.9-.2 5.8-1.1 0-.1.6-.4.8-.6zM25.5 25.4c-1.7 0-3.1-1.3-3.1-3 0-1.6 1.4-3 3.1-3 1.7 0 3.1 1.3 3.1 3s-1.4 3-3.1 3zm12.2 0c-1.7 0-3.1-1.3-3.1-3 0-1.6 1.4-3 3.1-3 1.7 0 3.1 1.3 3.1 3s-1.4 3-3.1 3zm8.8 18c-1.8.9-3.9 1.2-5.8 1.2-2.5 0-4.5-.5-5-.7-1.4-.6-2.5-1.4-3.3-2.5l-.4-.7-.5.6c-.8 1.1-1.9 1.9-3.3 2.5-.4.2-2.4.7-5 .7-4.7 0-10.3-1.7-10.8-9.6 1.2.7 2.7 1.1 4.1 1.1 1.6 0 3-.4 4.2-1.2.7-.5 1.4-1.1 2.1-1.6 1.4-1.2 2.7-2.3 4.5-2.3.2 0 .5 0 .8.1 1.3.2 2.5 1 3.4 2.1l.5.6.5-.6c.9-1.2 2.1-1.9 3.4-2.1.3 0 .5-.1.8-.1 1.8 0 3.1 1.1 4.5 2.3.6.6 1.3 1.1 2.1 1.6 1 .6 2.2 1 3.4 1.2h1.1c1.4 0 2.7-.4 3.8-1.1-.2 3.9-1.8 6.3-3.8 7.7-.5.4-.9.6-1.3.8z"/><path d="M40.7 46c-2.6 0-4.9-.5-5.6-.8-1.2-.5-2.3-1.2-3.1-2.1-.9.9-1.9 1.6-3.1 2.1-.7.3-3 .8-5.6.8C18.7 46 11 44.4 11 33.9v-2l1.6 1.3c1.1.9 2.6 1.4 4.1 1.4 1.3 0 2.4-.3 3.4-1 .6-.4 1.2-.9 1.9-1.5 1.5-1.3 3.1-2.7 5.5-2.7.3 0 .7 0 1 .1 1.3.2 2.5.8 3.6 1.8 1-1 2.2-1.6 3.6-1.8.3-.1.7-.1 1-.1 2.4 0 4 1.4 5.5 2.7.6.5 1.2 1.1 1.9 1.5.6.4 1.4.7 2.2.8v-11h-4c-.5 2-2.3 3.5-4.5 3.5s-4-1.5-4.5-3.5H30c-.5 2-2.3 3.5-4.5 3.5-2.5 0-4.6-2-4.6-4.4S23 18 25.5 18c2.2 0 4.1 1.5 4.5 3.6h3.1c.4-2.1 2.3-3.6 4.5-3.6s4.1 1.5 4.5 3.6H48v13.1c1.3-.1 2.5-.6 3.4-1.4L53 32v2c0 6.4-2.8 9.2-5.2 10.4-.3.2-.9.4-1.2.6-1.5.6-3.5 1-5.9 1zM32 42l.3.3c.8.9 1.9 1.7 3.2 2.2.6.3 2.8.7 5.3.7 2.3 0 4.1-.3 5.7-1 .3-.1.8-.4 1.1-.5 3.1-1.7 4.8-5 4.8-9.8v-.4l-.3.3c-1.1.9-2.7 1.5-4.3 1.6h-.4V22.3h-5.7V22c-.2-1.9-1.9-3.3-3.9-3.3s-3.6 1.4-3.9 3.3v.3h-4.4V22c-.2-1.9-1.9-3.3-3.9-3.3-2.1 0-3.9 1.7-3.9 3.7s1.7 3.7 3.9 3.7c1.9 0 3.6-1.4 3.8-3.2v-.3h4.4v.3c.3 1.8 1.9 3.2 3.8 3.2s3.6-1.4 3.8-3.2v-.3h5.3v12.7h-.4c-1.1-.1-2.1-.5-2.9-1-.7-.4-1.3-1-1.9-1.5-1.4-1.2-2.9-2.5-5-2.5-.3 0-.6 0-.9.1-1.3.2-2.5.9-3.4 1.9l-.2.2-.3-.3c-1-1-2.1-1.7-3.4-1.9-.3-.1-.6-.1-.9-.1-2.1 0-3.6 1.3-5 2.5-.7.6-1.3 1.1-2 1.6-1.1.7-2.4 1.1-3.8 1.1-1.7 0-3.4-.6-4.6-1.6l-.3-.3v.4c0 9.9 7.2 11.4 11.6 11.4 2.4 0 4.7-.5 5.3-.7 1.3-.5 2.3-1.3 3.2-2.2l.2-.4zm8.7 2.9c-2.6 0-4.7-.5-5.1-.7-1.5-.6-2.6-1.5-3.4-2.6l-.2-.2-.2.2c-.8 1.1-2 2-3.4 2.6-.5.2-2.5.7-5.1.7-4.8 0-10.6-1.7-11.1-9.9v-.7l.6.4c1.1.7 2.5 1.1 3.9 1.1 1.5 0 2.9-.4 4-1.1.7-.5 1.3-1 2-1.6 1.4-1.3 2.8-2.4 4.7-2.4.3 0 .5 0 .8.1 1.4.2 2.7 1 3.6 2.3l.2.2.2-.2c.9-1.2 2.2-2 3.6-2.3.3 0 .5-.1.8-.1 1.9 0 3.3 1.2 4.7 2.4l-.2.3.2-.3c.6.6 1.3 1.1 2 1.6.9.6 2.1 1 3.2 1.1h1.1c1.3 0 2.6-.4 3.6-1l.6-.4v.7c-.2 3.7-1.6 6.4-4 8-.4.2-.8.5-1.2.7-1.6.7-3.6 1.1-5.9 1.1zM32 40.1l.8 1.1c.8 1 1.8 1.8 3.1 2.4.3.1 2.3.6 4.8.6 2.2 0 4.1-.4 5.6-1.1.4-.2.8-.4 1.1-.6 2.1-1.4 3.3-3.7 3.6-6.8-1 .5-2.2.8-3.4.8h-1.2c-1.3-.1-2.5-.5-3.6-1.2-.8-.5-1.4-1.1-2.1-1.6-1.3-1.2-2.6-2.2-4.2-2.2-.2 0-.5 0-.7.1-1.2.2-2.3.9-3.1 2l-.8 1-.8-1c-.8-1.1-1.9-1.8-3.1-2-.2 0-.5-.1-.7-.1-1.6 0-2.9 1.1-4.2 2.2-.7.6-1.4 1.2-2.1 1.7-1.3.8-2.8 1.3-4.4 1.3-1.3 0-2.6-.3-3.7-.8.7 7.1 6 8.6 10.3 8.6 2.4 0 4.4-.5 4.8-.7 1.3-.6 2.4-1.4 3.1-2.4l.9-1.3zm5.7-14.4c-1.9 0-3.5-1.5-3.5-3.3s1.6-3.3 3.5-3.3 3.5 1.5 3.5 3.3-1.6 3.3-3.5 3.3zm0-5.9c-1.5 0-2.8 1.2-2.8 2.6s1.2 2.6 2.8 2.6c1.5 0 2.8-1.2 2.8-2.6s-1.3-2.6-2.8-2.6zm-12.2 5.9c-1.9 0-3.5-1.5-3.5-3.3s1.6-3.3 3.5-3.3 3.5 1.5 3.5 3.3-1.6 3.3-3.5 3.3zm0-5.9c-1.5 0-2.8 1.2-2.8 2.6S24 25 25.5 25c1.5 0 2.8-1.2 2.8-2.6s-1.3-2.6-2.8-2.6z"/></g></svg>