<svg xmlns="http://www.w3.org/2000/svg" width="28" height="20"><path fill="currentColor" d="M23 20c-2.2 0-4-1.8-4-4 0-.2 0-.4.1-.7.1-.3.3-.4.6-.4.3.1.4.3.4.6v.4c0 1.7 1.3 3 3 3s3-1.3 3-3c0-.7-.2-1.3-.6-1.8-.2-.2-.1-.5.1-.7.2-.2.5-.1.7.1.5.7.8 1.6.8 2.5-.1 2.2-1.9 4-4.1 4zM6 20c-1 0-1.9-.4-2.6-1-.7-.6-1.2-1.5-1.3-2.4-.1-.3.1-.6.4-.6.2 0 .5.2.5.4.2 1.5 1.5 2.6 3 2.6s2.8-1.1 3-2.6c0-.2.3-.4.5-.4.3 0 .5.3.4.6-.1.9-.6 1.8-1.3 2.4-.7.6-1.6 1-2.6 1z"/><path fill="currentColor" d="M18.5 17H.5c-.1 0-.3-.1-.4-.2-.1-.1-.1-.3-.1-.4l.3-1.5c.2-1.2.7-2.3 1.4-3.3s1.5-1.9 2.5-2.5c.1-.1.2-.1.3-.1h9c.3 0 .5.2.5.5V14h3.7l.6-1.7c.5-1.3.7-2.6.7-3.9 0-1.2-.2-2.4-.6-3.5L18 3.7c-.1-.2 0-.3.1-.5.1-.1.2-.2.4-.2h4c.3 0 .5.2.5.5v2c0 .1-.1.3-.1.4l-.5.5.9.5c1.4.7 2.6 1.8 3.5 3.2.8 1.4 1.3 2.9 1.3 4.5 0 .3-.2.5-.5.5h-.1-.1-.1s-1.6-.8-3.8-.9h-.1c-2 0-4.5 2.8-4.5 2.8-.1-.1-.3 0-.4 0zM1.1 16h17.2c.3-.3.8-.8 1.5-1.4 1.3-1.1 2.5-1.6 3.6-1.6h.2c1.5.1 2.7.4 3.4.7-.3-2.6-1.8-4.8-4.2-6l-1.5-.8c-.2 0-.3-.2-.3-.3 0-.2 0-.3.1-.4l.9-.9V4h-2.8l.2.5c.4 1.3.6 2.6.6 3.9 0 1.5-.3 2.9-.8 4.3l-.8 2c0 .2-.2.3-.4.3h-4.5c-.3 0-.5-.2-.5-.5V10H4.7c-1.8 1.2-3 3-3.4 5.1l-.2.9z"/><path fill="currentColor" d="M12.5 10h-6C5.7 10 5 9.3 5 8.5S5.7 7 6.5 7h6c.8 0 1.5.7 1.5 1.5s-.7 1.5-1.5 1.5zm-6-2c-.3 0-.5.2-.5.5s.2.5.5.5h6c.3 0 .5-.2.5-.5s-.2-.5-.5-.5h-6zM17.5 3c-.8 0-1.5-.7-1.5-1.5S16.7 0 17.5 0 19 .7 19 1.5 18.3 3 17.5 3zm0-2c-.3 0-.5.2-.5.5s.2.5.5.5.5-.2.5-.5-.2-.5-.5-.5z"/><path fill="currentColor" d="M18.5 4c-.2 0-.4-.1-.4-.3l-.5-1.1c-.1-.2 0-.5.2-.7.2-.1.5 0 .7.2l.5 1.1c.1.2 0 .5-.2.7-.1.1-.2.1-.3.1zM23 18.5c-1.4 0-2.5-1.1-2.5-2.5s1.1-2.5 2.5-2.5 2.5 1.1 2.5 2.5-1.1 2.5-2.5 2.5zm0-4c-.8 0-1.5.7-1.5 1.5s.7 1.5 1.5 1.5 1.5-.7 1.5-1.5-.7-1.5-1.5-1.5zM25 12.6c-.1 0-.3-.1-.4-.2-.5-.6-1.2-1-2-1.3-.6-.1-1.1-.1-1.1-.1-.3 0-.5-.2-.5-.5s.2-.5.5-.5c.1 0 2.3-.1 3.9 1.8.2.2.2.5-.1.7-.1 0-.2.1-.3.1zM11.5 15c-.3 0-.5-.2-.5-.5 0-1.4-1.1-2.5-2.5-2.5H6.7c-.7 0-1.3.3-1.8.7l-2.1 2.1c-.2.2-.5.2-.7 0-.2-.2-.2-.5 0-.7L4.3 12c.7-.7 1.5-1 2.5-1h1.8c1.9 0 3.5 1.6 3.5 3.5-.1.3-.3.5-.6.5zM6 18.5c-1.1 0-2.1-.8-2.4-1.9-.1-.3.1-.5.4-.6.3-.1.5.1.6.4.1.6.7 1.1 1.4 1.1s1.3-.5 1.4-1.1c.1-.3.3-.4.6-.4.3.1.4.3.4.6-.3 1.1-1.3 1.9-2.4 1.9z"/></svg>